<svg height="24" preserveAspectRatio="xMinYMin" viewBox="-2 -2 24 24" fill = "white" width="24" xmlns="http://www.w3.org/2000/svg"><path d="m15 11.13v3.697h-2.143v-3.45c0-.866-.31-1.457-1.086-1.457-.592 0-.945.398-1.1.784-.056.138-.071.33-.071.522v3.601h-2.144s.029-5.842 0-6.447h2.144v.913l-.014.021h.014v-.02c.285-.44.793-1.066 1.932-1.066 1.41 0 2.468.922 2.468 2.902zm-8.787-5.859c-.733 0-1.213.482-1.213 1.114 0 .62.466 1.115 1.185 1.115h.014c.748 0 1.213-.496 1.213-1.115-.014-.632-.465-1.114-1.199-1.114zm-1.086 9.556h2.144v-6.447h-2.144z"/><path d="m4 2a2 2 0 0 0 -2 2v12a2 2 0 0 0 2 2h12a2 2 0 0 0 2-2v-12a2 2 0 0 0 -2-2zm0-2h12a4 4 0 0 1 4 4v12a4 4 0 0 1 -4 4h-12a4 4 0 0 1 -4-4v-12a4 4 0 0 1 4-4z"/></svg>